<?xml version="1.0" standalone="no"?>
<!DOCTYPE svg PUBLIC "-//W3C//DTD SVG 20010904//EN"
 "http://www.w3.org/TR/2001/REC-SVG-20010904/DTD/svg10.dtd">
<svg version="1.0" xmlns="http://www.w3.org/2000/svg"
 width="2560.000000pt" height="2560.000000pt" viewBox="0 0 2560.000000 2560.000000"
 preserveAspectRatio="xMidYMid meet">

<g transform="translate(0.000000,2560.000000) scale(0.100000,-0.100000)"
fill="#000000" stroke="none">
<path d="M2276 24839 c-95 -13 -312 -64 -421 -100 -169 -56 -367 -176 -544
-329 -86 -75 -161 -161 -253 -291 -128 -181 -189 -317 -245 -544 -65 -264 -63
-219 -63 -1442 l0 -1113 175 0 175 0 0 1111 c0 1245 -1 1228 70 1440 73 220
161 361 329 530 198 197 397 307 676 372 88 21 111 21 1248 24 l1157 4 0 174
0 175 -1117 -1 c-615 -1 -1149 -6 -1187 -10z"/>
<path d="M20990 24675 l0 -175 1111 0 c1245 0 1228 1 1440 -70 220 -73 361
-161 530 -329 197 -198 307 -397 372 -676 21 -88 21 -111 24 -1247 l4 -1158
174 0 175 0 0 1103 c0 707 -4 1133 -10 1187 -14 108 -63 319 -101 435 -56 169
-176 367 -329 544 -75 86 -161 161 -291 253 -181 128 -317 189 -544 245 -264
65 -219 63 -1442 63 l-1113 0 0 -175z"/>
<path d="M21527 15795 c-608 -74 -988 -363 -1156 -881 -140 -433 -147 -1122
-15 -1564 191 -636 678 -950 1474 -950 816 0 1304 326 1484 991 118 437 107
1102 -26 1518 -168 528 -544 813 -1166 886 -153 18 -445 18 -595 0z m518 -475
c312 -45 531 -185 646 -413 107 -211 159 -577 139 -967 -15 -277 -54 -452
-142 -630 -44 -90 -63 -117 -138 -191 -74 -75 -101 -94 -191 -138 -182 -88
-414 -125 -656 -103 -272 24 -445 95 -593 242 -205 205 -289 526 -277 1059 7
310 38 494 114 675 107 256 337 418 658 465 84 12 356 13 440 1z"/>
<path d="M21404 14638 c-208 -215 -380 -394 -382 -398 -3 -8 292 -293 302
-291 4 0 178 177 387 392 l381 391 -68 70 c-38 38 -108 105 -155 148 l-86 79
-379 -391z"/>
<path d="M21744 14084 c-330 -339 -600 -620 -602 -624 -3 -8 292 -293 302
-291 4 0 277 278 606 618 l600 617 -28 29 c-15 16 -84 82 -153 148 l-127 119
-598 -616z"/>
<path d="M2290 15530 l0 -230 840 0 c462 0 840 -2 840 -5 0 -3 -398 -577 -885
-1276 l-885 -1272 0 -148 0 -149 1265 0 1265 0 0 215 0 215 -895 2 -896 3 880
1265 881 1265 0 173 0 172 -1205 0 -1205 0 0 -230z"/>
<path d="M5260 14105 l0 -1655 1155 0 1155 0 0 215 0 215 -872 2 -873 3 0 500
0 500 778 3 777 2 0 215 0 215 -777 2 -778 3 -3 498 -2 497 875 0 875 0 0 220
0 220 -1155 0 -1155 0 0 -1655z"/>
<path d="M8090 14105 l0 -1655 280 0 280 0 0 586 0 585 393 -3 c382 -3 394 -4
449 -26 85 -34 134 -96 208 -262 34 -74 134 -301 223 -505 l162 -370 288 -3
c158 -1 287 0 287 3 0 12 -425 989 -468 1075 -35 72 -63 111 -114 163 -56 55
-65 69 -50 74 371 133 581 381 637 750 50 330 -28 683 -201 910 -138 181 -357
290 -647 322 -61 7 -398 11 -912 11 l-815 0 0 -1655z m1608 1199 c212 -43 346
-174 399 -389 24 -98 24 -336 0 -425 -44 -165 -128 -271 -269 -339 -152 -72
-181 -75 -708 -76 l-465 0 -3 623 -2 622 485 0 c404 0 499 -3 563 -16z"/>
<path d="M11230 14105 l0 -1655 280 0 280 0 0 545 0 545 242 260 c133 143 245
260 249 260 3 0 235 -362 515 -805 l509 -805 298 0 c236 0 297 3 291 13 -5 6
-289 448 -632 981 -343 533 -624 972 -625 976 -1 4 108 128 244 276 135 148
408 448 607 667 l363 397 -325 0 -324 0 -697 -752 c-383 -414 -700 -754 -706
-756 -5 -2 -9 283 -9 752 l0 756 -280 0 -280 0 0 -1655z"/>
<path d="M15369 15733 c-5 -16 -289 -758 -630 -1650 -340 -892 -619 -1624
-619 -1627 0 -3 130 -6 289 -6 l288 0 138 358 c76 196 150 387 164 425 l26 67
666 0 667 0 39 -102 c22 -57 96 -248 164 -425 l124 -323 289 0 c226 0 287 3
283 13 -24 65 -1237 3266 -1242 3280 -7 16 -31 17 -321 17 l-314 0 -11 -27z
m610 -1247 c155 -407 281 -741 281 -743 0 -2 -257 -3 -571 -3 -453 0 -570 3
-567 13 48 143 565 1484 570 1479 4 -4 133 -340 287 -746z"/>
<path d="M17810 14105 l0 -1655 1130 0 1130 0 0 215 0 215 -847 2 -848 3 -3
1438 -2 1437 -280 0 -280 0 0 -1655z"/>
<path d="M2677 11138 c-10 -8 -17 -31 -19 -58 l-3 -45 -75 -7 c-177 -16 -301
-104 -356 -252 -15 -40 -19 -78 -19 -177 0 -124 0 -125 37 -201 23 -45 55 -91
79 -113 72 -65 205 -115 305 -115 34 0 34 0 34 -48 0 -56 12 -72 56 -72 40 0
55 18 61 73 l5 43 77 11 c120 17 187 47 257 117 82 82 106 144 112 287 6 158
-30 263 -118 343 -70 63 -181 106 -276 106 l-51 0 -7 50 c-5 34 -13 53 -26 60
-25 14 -53 13 -73 -2z m-17 -533 l0 -335 -44 0 c-163 0 -282 124 -294 306 -13
214 106 358 301 363 l37 1 0 -335z m277 305 c63 -28 116 -81 145 -144 19 -43
23 -68 23 -161 0 -101 -2 -115 -28 -167 -50 -102 -152 -168 -259 -168 l-38 0
0 336 0 337 54 -6 c30 -3 76 -15 103 -27z"/>
<path d="M3716 11091 c-198 -65 -306 -240 -306 -496 0 -109 18 -202 51 -268
84 -166 218 -247 409 -247 238 0 403 139 450 378 18 91 8 271 -19 352 -43 127
-134 226 -251 272 -79 31 -252 36 -334 9z m248 -96 c145 -38 224 -152 242
-348 13 -143 -32 -302 -107 -376 -58 -59 -130 -86 -229 -85 -102 0 -162 23
-227 86 -145 142 -147 503 -4 646 81 80 202 109 325 77z"/>
<path d="M5556 11091 c-198 -65 -306 -240 -306 -496 0 -109 18 -202 51 -268
84 -166 218 -247 409 -247 238 0 403 139 450 378 18 91 8 271 -19 352 -43 127
-134 226 -251 272 -79 31 -252 36 -334 9z m248 -96 c145 -38 224 -152 242
-348 13 -143 -32 -302 -107 -376 -58 -59 -130 -86 -229 -85 -102 0 -162 23
-227 86 -145 142 -147 503 -4 646 81 80 202 109 325 77z"/>
<path d="M6721 11093 c-23 -20 -431 -939 -431 -972 0 -22 27 -41 58 -41 30 0
49 28 102 151 l49 114 263 3 263 2 54 -126 c57 -133 75 -153 125 -140 13 3 27
15 31 26 7 22 -398 953 -427 982 -23 23 -60 23 -87 1z m149 -378 c56 -132 104
-246 107 -252 4 -10 -42 -13 -211 -13 -119 0 -216 3 -216 8 0 4 44 111 98 237
54 127 101 239 105 249 4 10 9 17 11 15 2 -2 50 -112 106 -244z"/>
<path d="M10069 11093 c-11 -13 -14 -104 -14 -495 0 -468 0 -480 20 -494 17
-13 61 -15 270 -12 l251 3 67 33 c79 39 119 86 137 163 16 67 8 164 -18 214
-61 119 -166 154 -464 155 l-148 0 0 209 c0 177 -2 212 -16 225 -20 21 -68 20
-85 -1z m527 -564 c68 -34 94 -76 94 -153 0 -79 -23 -123 -81 -156 -42 -24
-52 -25 -241 -28 l-198 -4 0 180 c0 98 3 182 8 186 4 5 89 6 188 4 167 -4 185
-6 230 -29z"/>
<path d="M12561 11093 c-23 -20 -431 -939 -431 -972 0 -22 27 -41 58 -41 30 0
49 28 102 151 l49 114 263 3 263 2 54 -126 c57 -133 75 -153 125 -140 13 3 27
15 31 26 7 22 -398 953 -427 982 -23 23 -60 23 -87 1z m149 -378 c56 -132 104
-246 107 -252 4 -10 -42 -13 -211 -13 -119 0 -216 3 -216 8 0 4 44 111 98 237
54 127 101 239 105 249 4 10 9 17 11 15 2 -2 50 -112 106 -244z"/>
<path d="M15276 11091 c-198 -65 -306 -240 -306 -496 0 -109 18 -202 51 -268
84 -166 218 -247 409 -247 238 0 403 139 450 378 18 91 8 271 -19 352 -43 127
-134 226 -251 272 -79 31 -252 36 -334 9z m248 -96 c145 -38 224 -152 242
-348 13 -143 -32 -302 -107 -376 -58 -59 -130 -86 -229 -85 -102 0 -162 23
-227 86 -145 142 -147 503 -4 646 81 80 202 109 325 77z"/>
<path d="M17456 11091 c-198 -65 -306 -240 -306 -496 0 -109 18 -202 51 -268
84 -166 218 -247 409 -247 238 0 403 139 450 378 18 91 8 271 -19 352 -43 127
-134 226 -251 272 -79 31 -252 36 -334 9z m248 -96 c145 -38 224 -152 242
-348 13 -143 -32 -302 -107 -376 -58 -59 -130 -86 -229 -85 -102 0 -162 23
-227 86 -145 142 -147 503 -4 646 81 80 202 109 325 77z"/>
<path d="M22851 11093 c-23 -20 -431 -939 -431 -972 0 -22 27 -41 58 -41 30 0
49 28 102 151 l49 114 263 3 263 2 54 -126 c57 -133 75 -153 125 -140 13 3 27
15 31 26 7 22 -398 953 -427 982 -23 23 -60 23 -87 1z m149 -378 c56 -132 104
-246 107 -252 4 -10 -42 -13 -211 -13 -119 0 -216 3 -216 8 0 4 44 111 98 237
54 127 101 239 105 249 4 10 9 17 11 15 2 -2 50 -112 106 -244z"/>
<path d="M4372 11088 c-7 -7 -12 -24 -12 -38 0 -47 12 -50 197 -50 l173 0 0
-438 c0 -483 0 -482 60 -482 62 0 60 -12 60 476 l0 444 174 0 c185 0 206 5
206 50 0 10 -7 26 -16 34 -13 14 -66 16 -423 16 -303 0 -410 -3 -419 -12z"/>
<path d="M7182 11088 c-7 -7 -12 -24 -12 -38 0 -47 12 -50 197 -50 l173 0 0
-438 c0 -483 0 -482 60 -482 62 0 60 -12 60 476 l0 444 174 0 c185 0 206 5
206 50 0 10 -7 26 -16 34 -13 14 -66 16 -423 16 -303 0 -410 -3 -419 -12z"/>
<path d="M8174 11086 c-18 -14 -19 -31 -19 -491 0 -460 1 -477 19 -491 27 -19
595 -21 614 -2 15 15 15 61 0 76 -9 9 -82 12 -265 12 l-253 0 0 180 0 180 231
0 c140 0 238 4 250 10 22 12 26 59 7 78 -9 9 -78 12 -250 12 l-238 0 0 175 0
175 246 0 c150 0 253 4 265 10 22 12 26 59 7 78 -19 19 -587 17 -614 -2z"/>
<path d="M9158 11083 c-13 -15 -17 -63 -21 -263 -10 -397 -47 -515 -202 -636
-37 -29 -39 -33 -30 -59 23 -66 69 -58 158 25 135 126 187 322 187 708 l0 142
220 0 220 0 0 -443 c0 -417 1 -445 18 -460 26 -24 68 -21 86 5 14 20 16 83 16
490 0 455 -1 469 -20 488 -19 19 -33 20 -318 20 -272 0 -300 -2 -314 -17z"/>
<path d="M11014 11086 c-18 -14 -19 -31 -19 -491 0 -460 1 -477 19 -491 16
-11 75 -14 311 -14 311 0 315 1 315 50 0 49 -7 50 -277 50 l-253 0 0 180 0
180 231 0 c140 0 238 4 250 10 22 12 26 59 7 78 -9 9 -78 12 -250 12 l-238 0
0 175 0 175 246 0 c150 0 253 4 265 10 22 12 26 59 7 78 -19 19 -587 17 -614
-2z"/>
<path d="M13265 11086 c-20 -14 -20 -26 -20 -491 0 -465 0 -477 20 -491 17
-13 61 -15 270 -12 l251 3 67 33 c75 37 112 78 133 148 32 109 9 210 -64 274
-25 22 -56 43 -69 46 -13 4 -23 9 -22 13 0 3 21 20 47 36 123 80 131 288 14
385 -69 57 -103 63 -367 67 -201 4 -243 2 -260 -11z m503 -108 c101 -51 123
-188 44 -271 -43 -45 -105 -57 -289 -57 l-163 0 0 181 0 182 180 -5 c165 -5
184 -8 228 -30z m31 -453 c61 -36 76 -67 76 -155 0 -93 -16 -122 -85 -157 -41
-22 -57 -23 -237 -23 l-193 0 0 181 0 180 203 -3 c181 -3 206 -5 236 -23z"/>
<path d="M14092 11088 c-7 -7 -12 -24 -12 -38 0 -47 12 -50 197 -50 l173 0 0
-438 c0 -483 0 -482 60 -482 62 0 60 -12 60 476 l0 444 174 0 c185 0 206 5
206 50 0 10 -7 26 -16 34 -13 14 -66 16 -423 16 -303 0 -410 -3 -419 -12z"/>
<path d="M16124 11086 c-18 -14 -19 -31 -19 -496 0 -465 1 -482 19 -496 26
-18 61 -18 80 2 14 14 16 69 16 460 l0 444 300 0 300 0 0 -443 c0 -417 1 -445
18 -460 26 -24 68 -21 86 5 14 20 16 83 16 490 0 455 -1 469 -20 488 -19 19
-33 20 -398 20 -311 0 -382 -3 -398 -14z"/>
<path d="M18299 11083 c-11 -13 -14 -104 -14 -495 0 -463 1 -480 19 -494 26
-18 61 -18 80 2 13 13 16 46 16 204 l0 188 193 5 c209 5 241 11 313 60 70 47
106 118 112 217 6 111 -15 178 -77 240 -78 78 -132 90 -406 90 -195 0 -224 -2
-236 -17z m482 -98 c86 -31 119 -84 119 -191 0 -89 -30 -142 -97 -176 -44 -21
-63 -23 -225 -26 l-178 -4 0 206 0 206 169 0 c126 0 179 -4 212 -15z"/>
<path d="M19052 11088 c-7 -7 -12 -24 -12 -38 0 -47 12 -50 197 -50 l173 0 0
-438 c0 -483 0 -482 60 -482 62 0 60 -12 60 476 l0 444 174 0 c185 0 206 5
206 50 0 10 -7 26 -16 34 -13 14 -66 16 -423 16 -303 0 -410 -3 -419 -12z"/>
<path d="M20039 11083 c-11 -13 -14 -104 -14 -495 0 -463 1 -480 19 -494 26
-18 61 -18 80 2 13 13 16 46 16 204 l0 188 193 5 c209 5 241 11 313 60 70 47
106 118 112 217 6 111 -15 178 -77 240 -78 78 -132 90 -406 90 -195 0 -224 -2
-236 -17z m482 -98 c86 -31 119 -84 119 -191 0 -89 -30 -142 -97 -176 -44 -21
-63 -23 -225 -26 l-178 -4 0 206 0 206 169 0 c126 0 179 -4 212 -15z"/>
<path d="M20954 11086 c-18 -14 -19 -31 -19 -491 0 -460 1 -477 19 -491 16
-11 75 -14 311 -14 311 0 315 1 315 50 0 49 -7 50 -277 50 l-253 0 0 180 0
180 231 0 c140 0 238 4 250 10 22 12 26 59 7 78 -9 9 -78 12 -250 12 l-238 0
0 175 0 175 246 0 c150 0 253 4 265 10 22 12 26 59 7 78 -19 19 -587 17 -614
-2z"/>
<path d="M21642 11088 c-7 -7 -12 -24 -12 -38 0 -47 12 -50 197 -50 l173 0 0
-438 c0 -483 0 -482 60 -482 62 0 60 -12 60 476 l0 444 174 0 c185 0 206 5
206 50 0 10 -7 26 -16 34 -13 14 -66 16 -423 16 -303 0 -410 -3 -419 -12z"/>
<path d="M780 3877 c0 -707 4 -1133 10 -1187 14 -108 63 -319 101 -435 56
-169 176 -367 329 -544 75 -86 161 -161 291 -253 181 -128 317 -189 544 -245
264 -65 219 -63 1443 -63 l1112 0 0 175 0 175 -1111 0 c-1245 0 -1228 -1
-1440 70 -220 73 -361 161 -530 329 -197 198 -307 397 -372 676 -21 88 -21
111 -24 1248 l-4 1157 -174 0 -175 0 0 -1103z"/>
<path d="M24500 3869 c0 -1245 1 -1228 -70 -1440 -73 -220 -161 -361 -329
-530 -198 -197 -397 -307 -676 -372 -88 -21 -111 -21 -1247 -24 l-1158 -4 0
-174 0 -175 1103 0 c707 0 1133 4 1187 10 108 14 319 63 435 101 169 56 367
176 544 329 86 75 161 161 253 291 128 181 189 317 245 544 65 264 63 219 63
1443 l0 1112 -175 0 -175 0 0 -1111z"/>
</g>
</svg>
